PathFileType	4	(X/Y/Z)	pose_F01_0-96.trc
DataRate	CameraRate	NumFrames	NumMarkers	Units	OrigDataRate	OrigDataStartFrame	OrigNumFrames
30	30	10	21	m	30	48	96
Frame#	Time	CHip			RHip			RKnee			RAnkle			RBigToe			RSmallToe			RHeel			LHip			LKnee			LAnkle			LBigToe			LSmallToe			LHeel			Neck			Nose			RShoulder			RElbow			RWrist			LShoulder			LElbow			LWrist			
		X1	Y1	Z1	X2	Y2	Z2	X3	Y3	Z3	X4	Y4	Z4	X5	Y5	Z5	X6	Y6	Z6	X7	Y7	Z7	X8	Y8	Z8	X9	Y9	Z9	X10	Y10	Z10	X11	Y11	Z11	X12	Y12	Z12	X13	Y13	Z13	X14	Y14	Z14	X15	Y15	Z15	X16	Y16	Z16	X17	Y17	Z17	X18	Y18	Z18	X19	Y19	Z19	X20	Y20	Z20	X21	Y21	Z21	
48	1.6	-0.27201685122498037	1.876178835940467	-0.5367807949844862	-0.28728529182463314	1.8760052850825044	-0.481149533323718	-0.2884948120811632	1.7351883334046356	-0.47441656921533815													-0.25189435683832906	1.8787248784039905	-0.5885155677608478	-0.23886004512335987	1.733313910719679	-0.6314551852532683	-0.22744216602626127	1.5915458425804614	-0.6993956709488183	-0.20760058898248904	1.5651556516488032	-0.6947723094793864	-0.20216103533278798	1.5752087226962628	-0.7304363776380628	-0.23676652671431253	1.5858153686003524	-0.6932547806787113	-0.2711173489053206	2.053211070939286	-0.5640492743103886	-0.2759151518688519	2.099492740834698	-0.4504685474162612	-0.29548917544080716	2.046666560536358	-0.5031882308381622	-0.3170245851232208	2.0073047261408448	-0.35599921821782876	-0.29787094089537597	2.0703653580759696	-0.39939447604607753	-0.24036295574243707	2.057166234198664	-0.6255634769726915	-0.22420787838491246	1.973449436501643	-0.6367529081440829	-0.21107042050242963	1.8994216423431736	-0.5844430641458971
49	1.6333333333333333	-0.27114810795080346	1.8759101247472312	-0.53365145088477	-0.288340510817271	1.8756011013471925	-0.4841775016492853	-0.2884948120811632	1.7351883334046356	-0.47441656921533815													-0.25391638759686785	1.8783404611546688	-0.5863087738129985	-0.23850640895694825	1.7337390264395953	-0.6315996016117801	-0.22733435580415673	1.592514359953592	-0.6995827694610145	-0.20760058898248904	1.5651556516488032	-0.6947723094793864	-0.20216103533278798	1.5752087226962628	-0.7304363776380628	-0.23645223217574682	1.5870593151587535	-0.6925930694283001	-0.2701628442208873	2.0517545674807693	-0.5606018953516236	-0.2776941816043825	2.099565167547988	-0.4484207060095568	-0.2954746514755208	2.0465653912047763	-0.5032560203712254	-0.31707765736525956	2.009661984012145	-0.3563270078326597	-0.3019769827527589	2.0667414467163066	-0.3955096187932615	-0.24147929013513328	2.0557339085697657	-0.6198522529050031	-0.22114931176992114	1.9737137089140662	-0.6358360103733987	-0.20829311264630385	1.9014250795963632	-0.5840720147432633
50	1.6666666666666667	-0.2740816512579341	1.8766199191883544	-0.5346043559954028	-0.2882749910555661	1.8755215258504851	-0.48399547495887996	-0.2884948120811632	1.7351883334046356	-0.47441656921533815													-0.2539723067444455	1.8791144229545513	-0.5862877059247342	-0.23876335666489723	1.7290840116191497	-0.6309620877631579	-0.22722654558205221	1.5934828773267227	-0.6997698679732106	-0.20760058898248904	1.5651556516488032	-0.6947723094793864	-0.20216103533278798	1.5752087226962628	-0.7304363776380628	-0.23613793763718113	1.5883032617171546	-0.691931358177889	-0.2692342128748333	2.0518961685286032	-0.5574323457261362	-0.2766835213106711	2.0993062016302764	-0.4453970868808529	-0.2963894400196224	2.046464977004579	-0.49808877539295876	-0.3188687724380753	2.0059337012716294	-0.3531849686817645	-0.29988272959575646	2.0675157383244867	-0.3965812352145093	-0.24259203118107367	2.055732178370435	-0.614573848651988	-0.22252306336167402	1.9735669271019871	-0.6304798981619929	-0.2084057954308644	1.8962981017050287	-0.5743130176863458
51	1.7	-0.273273708175086	1.8751095336647265	-0.5312696144741826	-0.28924471064385315	1.8764419477986598	-0.4789885435180193	-0.2884948120811632	1.7351883334046356	-0.47441656921533815													-0.2532958872984647	1.878545505828366	-0.5830931519794168	-0.24083502117913563	1.7317642576904373	-0.6290406183081448	-0.22722654558205221	1.5934828773267227	-0.6997698679732106	-0.20760058898248904	1.5651556516488032	-0.6947723094793864	-0.20216103533278798	1.5752087226962628	-0.7304363776380628	-0.23613793763718113	1.5883032617171546	-0.691931358177889	-0.27024412109220364	2.0517381931489256	-0.5520959781134523	-0.2775684299983334	2.0979125915471974	-0.43949261194166506	-0.29649894462869736	2.0474717672995837	-0.49839435074292154	-0.31900763080100597	2.007156539301786	-0.35365461722391867	-0.2998435586276554	2.071385690084813	-0.39770238659080215	-0.24079664395474407	2.0556051243257865	-0.6083141963158564	-0.2245103756161244	1.9720722420175119	-0.6278554635062088	-0.20515451291419307	1.8962554352181058	-0.5733117997692299
52	1.7333333333333334	-0.27348210843512755	1.8781736237427074	-0.5316405798883228	-0.28758266958574175	1.8798117247454658	-0.48148445947149304	-0.2884948120811632	1.7351883334046356	-0.47441656921533815													-0.2533920114932069	1.8798045419087193	-0.5832149594798841	-0.2399758154045687	1.7287693143186342	-0.625682401658305	-0.22722654558205221	1.5934828773267227	-0.6997698679732106	-0.20760058898248904	1.5651556516488032	-0.6947723094793864	-0.20216103533278798	1.5752087226962628	-0.7304363776380628	-0.23613793763718113	1.5883032617171546	-0.691931358177889	-0.27024112332592237	2.0514484033148994	-0.5437963746549421	-0.27838862310504214	2.097508761611105	-0.43418887427038994	-0.2973202867756864	2.047639443301068	-0.49311420671356637	-0.31890944679151145	2.0058700422148434	-0.3530930356541255	-0.30056056299881073	2.0699183337516844	-0.39198628448897466	-0.24104282180661096	2.05515221333377	-0.6000280308619192	-0.225876692720854	1.9702739288118383	-0.6225960588825394	-0.20864056084423696	1.893444440742742	-0.5741558038398559
53	1.7666666666666666	-0.2753940351851251	1.876900335192002	-0.529240967771524	-0.28952372211910055	1.8766715548430257	-0.4789788935520433	-0.2884948120811632	1.7351883334046356	-0.47441656921533815													-0.25538907329774896	1.8783032240349973	-0.5808478432617672	-0.24416744499523374	1.7316935286832504	-0.6214301412320484	-0.22722654558205221	1.5934828773267227	-0.6997698679732106	-0.20760058898248904	1.5651556516488032	-0.6947723094793864	-0.20216103533278798	1.5752087226962628	-0.7304363776380628	-0.23613793763718113	1.5883032617171546	-0.691931358177889	-0.26934883869897214	2.051211790217161	-0.5405585217170797	-0.27822868609801793	2.0968522241342877	-0.4250732827060331	-0.29639996837000926	2.047459403203082	-0.4900310630532276	-0.3177850274116286	2.0041073727893113	-0.3495198714344778	-0.30139854353716916	2.067327232404454	-0.3860599456487076	-0.24217829384445336	2.0548888592536363	-0.5946639749312512	-0.22927031750694285	1.969314121671495	-0.6149545923097255	-0.21721800892555196	1.8923734162509307	-0.5649719444632949
54	1.8	-0.2752152914735076	1.875178066797555	-0.5288051890797529	-0.2892693261371657	1.8737380845299927	-0.47834067944397246	-0.2884948120811632	1.7351883334046356	-0.47441656921533815													-0.25512808149624827	1.8791112745485532	-0.5807134494029962	-0.24353149721574768	1.7302315235023717	-0.6219427443976147	-0.22722654558205221	1.5934828773267227	-0.6997698679732106	-0.20760058898248904	1.5651556516488032	-0.6947723094793864	-0.20216103533278798	1.5752087226962628	-0.7304363776380628	-0.23613793763718113	1.5883032617171546	-0.691931358177889	-0.27050304841703876	2.0497320268795756	-0.5353820012052456	-0.28275667372909796	2.0966443670912986	-0.41540860249435213	-0.2974354508084185	2.0447108172501394	-0.4843232725019998	-0.31851687158220543	2.001428388036717	-0.34369504231087655	-0.30111105332986515	2.063140123194256	-0.37675342817358104	-0.2433146309488923	2.054686168660988	-0.5893269430973483	-0.22933190054499888	1.967860967150917	-0.6145190875055558	-0.21702329887990587	1.8901232170217408	-0.564205011976018
55	1.8333333333333333	-0.27596642032273155	1.8738889824731495	-0.531959588327386	-0.29021472858730424	1.8713026734064593	-0.4813980758293543	-0.2884948120811632	1.7351883334046356	-0.47441656921533815													-0.2560008971187709	1.8763625729253508	-0.5837068784078124	-0.2428955494362616	1.728769518321493	-0.6224553475631808	-0.22722654558205221	1.5934828773267227	-0.6997698679732106	-0.20760058898248904	1.5651556516488032	-0.6947723094793864	-0.20216103533278798	1.5752087226962628	-0.7304363776380628	-0.23613793763718113	1.5883032617171546	-0.691931358177889	-0.27228298685235347	2.048571999042283	-0.5320091085550518	-0.28259277580865694	2.092550670641434	-0.4060619406837754	-0.29908672622623156	2.0435596003194743	-0.4810462345581409	-0.3197111934279803	2.0006462187525593	-0.3468408401915742	-0.3018654919812521	2.0630392118065126	-0.37149455925472974	-0.24446788540035222	2.0531727092090826	-0.5834851682906499	-0.231253864282941	1.9693869181451336	-0.6122712052135374	-0.21671610190016719	1.8861880359804681	-0.5547578525661773
56	1.8666666666666667	-0.2783446289180103	1.8748422077498053	-0.5300394588925891	-0.29241252627348624	1.8729204207643853	-0.47960581954969894	-0.2884948120811632	1.7351883334046356	-0.47441656921533815													-0.25845023186940663	1.8773844800701216	-0.5817539704348947	-0.24225960165677554	1.7273075131406144	-0.622967950728747	-0.22722654558205221	1.5934828773267227	-0.6997698679732106	-0.20760058898248904	1.5651556516488032	-0.6947723094793864	-0.20216103533278798	1.5752087226962628	-0.7304363776380628	-0.23613793763718113	1.5883032617171546	-0.691931358177889	-0.2753861492477243	2.0458204182651007	-0.5241806770716612	-0.28531786766946027	2.0888868930340694	-0.39842438695440024	-0.3021220908201573	2.0419199165525526	-0.47379995990791696	-0.3234767301157182	1.997822225551554	-0.3423902853905306	-0.3027150585551034	2.060101108146574	-0.365706636098312	-0.24659983978576444	2.0493737930065046	-0.5720619816450085	-0.23167715406958256	1.9672545313913041	-0.603678577918749	-0.21906548280025356	1.8895134277890997	-0.5621508078236448
57	1.9	-0.2784473334634381	1.8756400644885354	-0.5300347034865207	-0.2955251756605898	1.8749409010556977	-0.48090879558615823	-0.2884948120811632	1.7351883334046356	-0.47441656921533815													-0.2603820014141511	1.8790190738965165	-0.5796401800911823	-0.241839013979178	1.7260817281323875	-0.6212286260950517	-0.22722654558205221	1.5934828773267227	-0.6997698679732106	-0.20760058898248904	1.5651556516488032	-0.6947723094793864	-0.20216103533278798	1.5752087226962628	-0.7304363776380628	-0.23613793763718113	1.5883032617171546	-0.691931358177889	-0.27543712410703286	2.0466941044781963	-0.5162211156515036	-0.28698043837294657	2.0846538204552445	-0.38673133217700023	-0.30009154919302305	2.041678262670921	-0.467494078536423	-0.3246581415895088	1.9938639943878647	-0.34448791249065447	-0.31247674297700784	2.0502103595408263	-0.35454472439419193	-0.24786775816570053	2.049840446226209	-0.55886250887379	-0.23383117461449562	1.9645757887062154	-0.6010617216262227	-0.22330869828780409	1.8863374996390474	-0.5569223000076509
